<mxfile host="app.diagrams.net" modified="2023-11-29T11:37:32.027Z" agent="Mozilla/5.0 (Windows NT 10.0; Win64; x64) AppleWebKit/537.36 (KHTML, like Gecko) Chrome/119.0.0.0 Safari/537.36" etag="KYKebKr_vtA8r2wNID3n" version="22.1.4" type="github">
  <diagram id="C5RBs43oDa-KdzZeNtuy" name="Page-1">
    <mxGraphModel dx="1290" dy="534" grid="1" gridSize="10" guides="1" tooltips="1" connect="1" arrows="1" fold="1" page="1" pageScale="1" pageWidth="827" pageHeight="1169" math="0" shadow="0">
      <root>
        <mxCell id="WIyWlLk6GJQsqaUBKTNV-0" />
        <mxCell id="WIyWlLk6GJQsqaUBKTNV-1" parent="WIyWlLk6GJQsqaUBKTNV-0" />
        <mxCell id="CTCrt8Z_viRjLT7_yXvK-0" value="Tính số ngày trong tháng" style="ellipse;whiteSpace=wrap;html=1;" parent="WIyWlLk6GJQsqaUBKTNV-1" vertex="1">
          <mxGeometry x="844.5" y="30" width="140" height="60" as="geometry" />
        </mxCell>
        <mxCell id="CTCrt8Z_viRjLT7_yXvK-2" value="Input d, m ,y" style="shape=parallelogram;perimeter=parallelogramPerimeter;whiteSpace=wrap;html=1;fixedSize=1;" parent="WIyWlLk6GJQsqaUBKTNV-1" vertex="1">
          <mxGeometry x="854.5" y="130" width="120" height="60" as="geometry" />
        </mxCell>
        <mxCell id="CTCrt8Z_viRjLT7_yXvK-3" value="(m &amp;gt; 0 &amp;amp;&amp;amp; m &amp;lt; 12) ||&lt;br style=&quot;border-color: var(--border-color);&quot;&gt;m is not string" style="rhombus;whiteSpace=wrap;html=1;" parent="WIyWlLk6GJQsqaUBKTNV-1" vertex="1">
          <mxGeometry x="838.5" y="230" width="152" height="80" as="geometry" />
        </mxCell>
        <mxCell id="CTCrt8Z_viRjLT7_yXvK-4" value="(d &amp;gt; 0)&amp;nbsp; ||&amp;nbsp;&lt;br&gt;d is not string" style="rhombus;whiteSpace=wrap;html=1;" parent="WIyWlLk6GJQsqaUBKTNV-1" vertex="1">
          <mxGeometry x="810" y="350" width="209" height="80" as="geometry" />
        </mxCell>
        <mxCell id="CTCrt8Z_viRjLT7_yXvK-5" value="y &amp;gt; 0 ||&lt;br&gt;y is not string&amp;nbsp;" style="rhombus;whiteSpace=wrap;html=1;" parent="WIyWlLk6GJQsqaUBKTNV-1" vertex="1">
          <mxGeometry x="836.5" y="470" width="156" height="80" as="geometry" />
        </mxCell>
        <mxCell id="CTCrt8Z_viRjLT7_yXvK-6" value="" style="endArrow=none;html=1;rounded=0;entryX=0.5;entryY=1;entryDx=0;entryDy=0;exitX=0.5;exitY=0;exitDx=0;exitDy=0;" parent="WIyWlLk6GJQsqaUBKTNV-1" source="CTCrt8Z_viRjLT7_yXvK-4" target="CTCrt8Z_viRjLT7_yXvK-3" edge="1">
          <mxGeometry width="50" height="50" relative="1" as="geometry">
            <mxPoint x="1030" y="380" as="sourcePoint" />
            <mxPoint x="1080" y="330" as="targetPoint" />
          </mxGeometry>
        </mxCell>
        <mxCell id="CTCrt8Z_viRjLT7_yXvK-7" value="Yes" style="edgeLabel;html=1;align=center;verticalAlign=middle;resizable=0;points=[];" parent="CTCrt8Z_viRjLT7_yXvK-6" vertex="1" connectable="0">
          <mxGeometry x="-0.331" y="1" relative="1" as="geometry">
            <mxPoint as="offset" />
          </mxGeometry>
        </mxCell>
        <mxCell id="CTCrt8Z_viRjLT7_yXvK-8" value="" style="endArrow=none;html=1;rounded=0;exitX=0.5;exitY=1;exitDx=0;exitDy=0;entryX=0.5;entryY=0;entryDx=0;entryDy=0;" parent="WIyWlLk6GJQsqaUBKTNV-1" source="CTCrt8Z_viRjLT7_yXvK-4" target="CTCrt8Z_viRjLT7_yXvK-5" edge="1">
          <mxGeometry width="50" height="50" relative="1" as="geometry">
            <mxPoint x="1030" y="380" as="sourcePoint" />
            <mxPoint x="1080" y="330" as="targetPoint" />
          </mxGeometry>
        </mxCell>
        <mxCell id="CTCrt8Z_viRjLT7_yXvK-9" value="Yes" style="edgeLabel;html=1;align=center;verticalAlign=middle;resizable=0;points=[];" parent="CTCrt8Z_viRjLT7_yXvK-8" vertex="1" connectable="0">
          <mxGeometry x="-0.0507" y="1" relative="1" as="geometry">
            <mxPoint as="offset" />
          </mxGeometry>
        </mxCell>
        <mxCell id="CTCrt8Z_viRjLT7_yXvK-10" value="" style="endArrow=none;html=1;rounded=0;entryX=0.5;entryY=1;entryDx=0;entryDy=0;exitX=0.5;exitY=0;exitDx=0;exitDy=0;" parent="WIyWlLk6GJQsqaUBKTNV-1" source="CTCrt8Z_viRjLT7_yXvK-2" target="CTCrt8Z_viRjLT7_yXvK-0" edge="1">
          <mxGeometry width="50" height="50" relative="1" as="geometry">
            <mxPoint x="1030" y="310" as="sourcePoint" />
            <mxPoint x="1080" y="260" as="targetPoint" />
          </mxGeometry>
        </mxCell>
        <mxCell id="CTCrt8Z_viRjLT7_yXvK-12" value="" style="endArrow=none;html=1;rounded=0;entryX=0.5;entryY=1;entryDx=0;entryDy=0;exitX=0.5;exitY=0;exitDx=0;exitDy=0;" parent="WIyWlLk6GJQsqaUBKTNV-1" source="CTCrt8Z_viRjLT7_yXvK-3" target="CTCrt8Z_viRjLT7_yXvK-2" edge="1">
          <mxGeometry width="50" height="50" relative="1" as="geometry">
            <mxPoint x="1030" y="370" as="sourcePoint" />
            <mxPoint x="1080" y="320" as="targetPoint" />
          </mxGeometry>
        </mxCell>
        <mxCell id="CTCrt8Z_viRjLT7_yXvK-13" value="" style="endArrow=none;html=1;rounded=0;exitX=1;exitY=0.5;exitDx=0;exitDy=0;entryX=1;entryY=0.5;entryDx=0;entryDy=0;" parent="WIyWlLk6GJQsqaUBKTNV-1" source="CTCrt8Z_viRjLT7_yXvK-5" target="CTCrt8Z_viRjLT7_yXvK-2" edge="1">
          <mxGeometry width="50" height="50" relative="1" as="geometry">
            <mxPoint x="1190" y="300" as="sourcePoint" />
            <mxPoint x="1240" y="250" as="targetPoint" />
            <Array as="points">
              <mxPoint x="1090" y="510" />
              <mxPoint x="1090" y="160" />
            </Array>
          </mxGeometry>
        </mxCell>
        <mxCell id="CTCrt8Z_viRjLT7_yXvK-18" value="No" style="edgeLabel;html=1;align=center;verticalAlign=middle;resizable=0;points=[];" parent="CTCrt8Z_viRjLT7_yXvK-13" vertex="1" connectable="0">
          <mxGeometry x="-0.8602" y="-3" relative="1" as="geometry">
            <mxPoint as="offset" />
          </mxGeometry>
        </mxCell>
        <mxCell id="CTCrt8Z_viRjLT7_yXvK-14" value="" style="endArrow=none;html=1;rounded=0;exitX=1;exitY=0.5;exitDx=0;exitDy=0;" parent="WIyWlLk6GJQsqaUBKTNV-1" source="CTCrt8Z_viRjLT7_yXvK-4" edge="1">
          <mxGeometry width="50" height="50" relative="1" as="geometry">
            <mxPoint x="1190" y="300" as="sourcePoint" />
            <mxPoint x="1090" y="390" as="targetPoint" />
          </mxGeometry>
        </mxCell>
        <mxCell id="CTCrt8Z_viRjLT7_yXvK-17" value="No" style="edgeLabel;html=1;align=center;verticalAlign=middle;resizable=0;points=[];" parent="CTCrt8Z_viRjLT7_yXvK-14" vertex="1" connectable="0">
          <mxGeometry x="-0.0704" y="-2" relative="1" as="geometry">
            <mxPoint as="offset" />
          </mxGeometry>
        </mxCell>
        <mxCell id="CTCrt8Z_viRjLT7_yXvK-15" value="" style="endArrow=none;html=1;rounded=0;exitX=1;exitY=0.5;exitDx=0;exitDy=0;" parent="WIyWlLk6GJQsqaUBKTNV-1" source="CTCrt8Z_viRjLT7_yXvK-3" edge="1">
          <mxGeometry width="50" height="50" relative="1" as="geometry">
            <mxPoint x="1190" y="300" as="sourcePoint" />
            <mxPoint x="1090" y="270" as="targetPoint" />
          </mxGeometry>
        </mxCell>
        <mxCell id="CTCrt8Z_viRjLT7_yXvK-16" value="No" style="edgeLabel;html=1;align=center;verticalAlign=middle;resizable=0;points=[];" parent="CTCrt8Z_viRjLT7_yXvK-15" vertex="1" connectable="0">
          <mxGeometry x="-0.0441" y="-3" relative="1" as="geometry">
            <mxPoint as="offset" />
          </mxGeometry>
        </mxCell>
        <mxCell id="CTCrt8Z_viRjLT7_yXvK-19" value="" style="endArrow=none;html=1;rounded=0;exitX=0.5;exitY=1;exitDx=0;exitDy=0;" parent="WIyWlLk6GJQsqaUBKTNV-1" source="CTCrt8Z_viRjLT7_yXvK-5" target="CTCrt8Z_viRjLT7_yXvK-20" edge="1">
          <mxGeometry width="50" height="50" relative="1" as="geometry">
            <mxPoint x="1190" y="480" as="sourcePoint" />
            <mxPoint x="915" y="610" as="targetPoint" />
          </mxGeometry>
        </mxCell>
        <mxCell id="CTCrt8Z_viRjLT7_yXvK-47" value="Yes" style="edgeLabel;html=1;align=center;verticalAlign=middle;resizable=0;points=[];" parent="CTCrt8Z_viRjLT7_yXvK-19" vertex="1" connectable="0">
          <mxGeometry x="-0.175" y="-1" relative="1" as="geometry">
            <mxPoint as="offset" />
          </mxGeometry>
        </mxCell>
        <mxCell id="CTCrt8Z_viRjLT7_yXvK-20" value="m = 1 || m = 3 || m = 5 || m = 7&lt;br&gt;|| m = 8 || m = 10 || m = m12&amp;nbsp;" style="rhombus;whiteSpace=wrap;html=1;" parent="WIyWlLk6GJQsqaUBKTNV-1" vertex="1">
          <mxGeometry x="814.5" y="590" width="200" height="130" as="geometry" />
        </mxCell>
        <mxCell id="CTCrt8Z_viRjLT7_yXvK-21" value="" style="endArrow=none;html=1;rounded=0;exitX=1;exitY=0.5;exitDx=0;exitDy=0;" parent="WIyWlLk6GJQsqaUBKTNV-1" source="CTCrt8Z_viRjLT7_yXvK-20" target="CTCrt8Z_viRjLT7_yXvK-22" edge="1">
          <mxGeometry width="50" height="50" relative="1" as="geometry">
            <mxPoint x="1090" y="700" as="sourcePoint" />
            <mxPoint x="1110" y="670" as="targetPoint" />
          </mxGeometry>
        </mxCell>
        <mxCell id="CTCrt8Z_viRjLT7_yXvK-45" value="Yes" style="edgeLabel;html=1;align=center;verticalAlign=middle;resizable=0;points=[];" parent="CTCrt8Z_viRjLT7_yXvK-21" vertex="1" connectable="0">
          <mxGeometry x="0.0733" y="-1" relative="1" as="geometry">
            <mxPoint as="offset" />
          </mxGeometry>
        </mxCell>
        <mxCell id="CTCrt8Z_viRjLT7_yXvK-22" value="d = 31" style="rounded=0;whiteSpace=wrap;html=1;" parent="WIyWlLk6GJQsqaUBKTNV-1" vertex="1">
          <mxGeometry x="1110" y="625" width="120" height="60" as="geometry" />
        </mxCell>
        <mxCell id="CTCrt8Z_viRjLT7_yXvK-23" value="" style="endArrow=none;html=1;rounded=0;exitX=0.5;exitY=1;exitDx=0;exitDy=0;" parent="WIyWlLk6GJQsqaUBKTNV-1" source="CTCrt8Z_viRjLT7_yXvK-20" target="CTCrt8Z_viRjLT7_yXvK-25" edge="1">
          <mxGeometry width="50" height="50" relative="1" as="geometry">
            <mxPoint x="1090" y="800" as="sourcePoint" />
            <mxPoint x="915" y="810" as="targetPoint" />
          </mxGeometry>
        </mxCell>
        <mxCell id="CTCrt8Z_viRjLT7_yXvK-48" value="No" style="edgeLabel;html=1;align=center;verticalAlign=middle;resizable=0;points=[];" parent="CTCrt8Z_viRjLT7_yXvK-23" vertex="1" connectable="0">
          <mxGeometry x="-0.0092" y="2" relative="1" as="geometry">
            <mxPoint as="offset" />
          </mxGeometry>
        </mxCell>
        <mxCell id="CTCrt8Z_viRjLT7_yXvK-25" value="m = 2" style="rhombus;whiteSpace=wrap;html=1;" parent="WIyWlLk6GJQsqaUBKTNV-1" vertex="1">
          <mxGeometry x="810" y="780" width="210" height="80" as="geometry" />
        </mxCell>
        <mxCell id="CTCrt8Z_viRjLT7_yXvK-26" value="" style="endArrow=none;html=1;rounded=0;exitX=0.5;exitY=1;exitDx=0;exitDy=0;entryX=0.5;entryY=0;entryDx=0;entryDy=0;" parent="WIyWlLk6GJQsqaUBKTNV-1" source="CTCrt8Z_viRjLT7_yXvK-25" target="CTCrt8Z_viRjLT7_yXvK-77" edge="1">
          <mxGeometry width="50" height="50" relative="1" as="geometry">
            <mxPoint x="770" y="940" as="sourcePoint" />
            <mxPoint x="840" y="960" as="targetPoint" />
          </mxGeometry>
        </mxCell>
        <mxCell id="CTCrt8Z_viRjLT7_yXvK-46" value="Yes" style="edgeLabel;html=1;align=center;verticalAlign=middle;resizable=0;points=[];" parent="CTCrt8Z_viRjLT7_yXvK-26" vertex="1" connectable="0">
          <mxGeometry x="-0.17" y="-4" relative="1" as="geometry">
            <mxPoint x="-1" as="offset" />
          </mxGeometry>
        </mxCell>
        <mxCell id="CTCrt8Z_viRjLT7_yXvK-27" value="y %100 != 0" style="rhombus;whiteSpace=wrap;html=1;" parent="WIyWlLk6GJQsqaUBKTNV-1" vertex="1">
          <mxGeometry x="845" y="1030" width="140" height="80" as="geometry" />
        </mxCell>
        <mxCell id="CTCrt8Z_viRjLT7_yXvK-28" value="d = 29" style="rounded=0;whiteSpace=wrap;html=1;" parent="WIyWlLk6GJQsqaUBKTNV-1" vertex="1">
          <mxGeometry x="870" y="1160" width="90" height="45" as="geometry" />
        </mxCell>
        <mxCell id="CTCrt8Z_viRjLT7_yXvK-31" value="d = 28" style="rounded=0;whiteSpace=wrap;html=1;" parent="WIyWlLk6GJQsqaUBKTNV-1" vertex="1">
          <mxGeometry x="1115" y="910" width="100" height="60" as="geometry" />
        </mxCell>
        <mxCell id="CTCrt8Z_viRjLT7_yXvK-37" value="" style="endArrow=none;html=1;rounded=0;entryX=1;entryY=0.5;entryDx=0;entryDy=0;exitX=0;exitY=0.5;exitDx=0;exitDy=0;" parent="WIyWlLk6GJQsqaUBKTNV-1" source="CTCrt8Z_viRjLT7_yXvK-31" target="CTCrt8Z_viRjLT7_yXvK-77" edge="1">
          <mxGeometry width="50" height="50" relative="1" as="geometry">
            <mxPoint x="840" y="940" as="sourcePoint" />
            <mxPoint x="890" y="890" as="targetPoint" />
          </mxGeometry>
        </mxCell>
        <mxCell id="CTCrt8Z_viRjLT7_yXvK-83" value="No" style="edgeLabel;html=1;align=center;verticalAlign=middle;resizable=0;points=[];" parent="CTCrt8Z_viRjLT7_yXvK-37" vertex="1" connectable="0">
          <mxGeometry x="0.3194" y="2" relative="1" as="geometry">
            <mxPoint as="offset" />
          </mxGeometry>
        </mxCell>
        <mxCell id="CTCrt8Z_viRjLT7_yXvK-38" value="" style="endArrow=none;html=1;rounded=0;entryX=1;entryY=0.5;entryDx=0;entryDy=0;exitX=0;exitY=0.5;exitDx=0;exitDy=0;" parent="WIyWlLk6GJQsqaUBKTNV-1" source="CTCrt8Z_viRjLT7_yXvK-40" target="CTCrt8Z_viRjLT7_yXvK-25" edge="1">
          <mxGeometry width="50" height="50" relative="1" as="geometry">
            <mxPoint x="915" y="910" as="sourcePoint" />
            <mxPoint x="1140" y="890" as="targetPoint" />
          </mxGeometry>
        </mxCell>
        <mxCell id="CTCrt8Z_viRjLT7_yXvK-49" value="No" style="edgeLabel;html=1;align=center;verticalAlign=middle;resizable=0;points=[];" parent="CTCrt8Z_viRjLT7_yXvK-38" vertex="1" connectable="0">
          <mxGeometry x="0.0079" y="-3" relative="1" as="geometry">
            <mxPoint x="1" as="offset" />
          </mxGeometry>
        </mxCell>
        <mxCell id="CTCrt8Z_viRjLT7_yXvK-40" value="d = 30" style="rounded=0;whiteSpace=wrap;html=1;" parent="WIyWlLk6GJQsqaUBKTNV-1" vertex="1">
          <mxGeometry x="1110" y="790" width="120" height="60" as="geometry" />
        </mxCell>
        <mxCell id="CTCrt8Z_viRjLT7_yXvK-41" value="" style="endArrow=none;html=1;rounded=0;entryX=1;entryY=0.5;entryDx=0;entryDy=0;exitX=0.5;exitY=0;exitDx=0;exitDy=0;" parent="WIyWlLk6GJQsqaUBKTNV-1" source="CTCrt8Z_viRjLT7_yXvK-50" target="CTCrt8Z_viRjLT7_yXvK-22" edge="1">
          <mxGeometry width="50" height="50" relative="1" as="geometry">
            <mxPoint x="1420" y="1000" as="sourcePoint" />
            <mxPoint x="1360" y="780" as="targetPoint" />
            <Array as="points">
              <mxPoint x="1420" y="655" />
            </Array>
          </mxGeometry>
        </mxCell>
        <mxCell id="CTCrt8Z_viRjLT7_yXvK-42" value="" style="endArrow=none;html=1;rounded=0;exitX=0.5;exitY=1;exitDx=0;exitDy=0;entryX=0;entryY=0.5;entryDx=0;entryDy=0;" parent="WIyWlLk6GJQsqaUBKTNV-1" source="CTCrt8Z_viRjLT7_yXvK-28" target="CTCrt8Z_viRjLT7_yXvK-50" edge="1">
          <mxGeometry width="50" height="50" relative="1" as="geometry">
            <mxPoint x="1310" y="830" as="sourcePoint" />
            <mxPoint x="1420" y="1183" as="targetPoint" />
            <Array as="points">
              <mxPoint x="915" y="1220" />
            </Array>
          </mxGeometry>
        </mxCell>
        <mxCell id="CTCrt8Z_viRjLT7_yXvK-43" value="" style="endArrow=none;html=1;rounded=0;exitX=1;exitY=0.5;exitDx=0;exitDy=0;" parent="WIyWlLk6GJQsqaUBKTNV-1" source="CTCrt8Z_viRjLT7_yXvK-31" edge="1">
          <mxGeometry width="50" height="50" relative="1" as="geometry">
            <mxPoint x="1310" y="830" as="sourcePoint" />
            <mxPoint x="1420" y="940" as="targetPoint" />
          </mxGeometry>
        </mxCell>
        <mxCell id="CTCrt8Z_viRjLT7_yXvK-44" value="" style="endArrow=none;html=1;rounded=0;exitX=1;exitY=0.5;exitDx=0;exitDy=0;" parent="WIyWlLk6GJQsqaUBKTNV-1" source="CTCrt8Z_viRjLT7_yXvK-40" edge="1">
          <mxGeometry width="50" height="50" relative="1" as="geometry">
            <mxPoint x="1310" y="830" as="sourcePoint" />
            <mxPoint x="1420" y="820" as="targetPoint" />
          </mxGeometry>
        </mxCell>
        <mxCell id="CTCrt8Z_viRjLT7_yXvK-50" value="return d" style="ellipse;whiteSpace=wrap;html=1;" parent="WIyWlLk6GJQsqaUBKTNV-1" vertex="1">
          <mxGeometry x="1360" y="1200" width="120" height="40" as="geometry" />
        </mxCell>
        <mxCell id="CTCrt8Z_viRjLT7_yXvK-74" value="y % 400" style="rhombus;whiteSpace=wrap;html=1;" parent="WIyWlLk6GJQsqaUBKTNV-1" vertex="1">
          <mxGeometry x="1105" y="1030" width="120" height="80" as="geometry" />
        </mxCell>
        <mxCell id="CTCrt8Z_viRjLT7_yXvK-77" value="y % 4 ==0&amp;nbsp;" style="rhombus;whiteSpace=wrap;html=1;" parent="WIyWlLk6GJQsqaUBKTNV-1" vertex="1">
          <mxGeometry x="875" y="900" width="80" height="80" as="geometry" />
        </mxCell>
        <mxCell id="CTCrt8Z_viRjLT7_yXvK-78" value="" style="endArrow=none;html=1;rounded=0;entryX=0.5;entryY=1;entryDx=0;entryDy=0;exitX=0.5;exitY=0;exitDx=0;exitDy=0;" parent="WIyWlLk6GJQsqaUBKTNV-1" source="CTCrt8Z_viRjLT7_yXvK-27" target="CTCrt8Z_viRjLT7_yXvK-77" edge="1">
          <mxGeometry width="50" height="50" relative="1" as="geometry">
            <mxPoint x="920" y="1060" as="sourcePoint" />
            <mxPoint x="970" y="1010" as="targetPoint" />
          </mxGeometry>
        </mxCell>
        <mxCell id="CTCrt8Z_viRjLT7_yXvK-79" value="Yes" style="edgeLabel;html=1;align=center;verticalAlign=middle;resizable=0;points=[];" parent="CTCrt8Z_viRjLT7_yXvK-78" vertex="1" connectable="0">
          <mxGeometry x="0.2222" relative="1" as="geometry">
            <mxPoint y="-1" as="offset" />
          </mxGeometry>
        </mxCell>
        <mxCell id="CTCrt8Z_viRjLT7_yXvK-86" value="" style="endArrow=none;html=1;rounded=0;exitX=0.5;exitY=0;exitDx=0;exitDy=0;entryX=0.5;entryY=1;entryDx=0;entryDy=0;" parent="WIyWlLk6GJQsqaUBKTNV-1" source="CTCrt8Z_viRjLT7_yXvK-74" target="CTCrt8Z_viRjLT7_yXvK-31" edge="1">
          <mxGeometry width="50" height="50" relative="1" as="geometry">
            <mxPoint x="920" y="1030" as="sourcePoint" />
            <mxPoint x="970" y="980" as="targetPoint" />
            <Array as="points">
              <mxPoint x="1165" y="1020" />
            </Array>
          </mxGeometry>
        </mxCell>
        <mxCell id="CTCrt8Z_viRjLT7_yXvK-91" value="No" style="edgeLabel;html=1;align=center;verticalAlign=middle;resizable=0;points=[];" parent="CTCrt8Z_viRjLT7_yXvK-86" vertex="1" connectable="0">
          <mxGeometry x="-0.7357" y="-2" relative="1" as="geometry">
            <mxPoint x="1" as="offset" />
          </mxGeometry>
        </mxCell>
        <mxCell id="CTCrt8Z_viRjLT7_yXvK-110" value="day ==&amp;nbsp; Tính số ngày trong tháng()" style="rounded=0;whiteSpace=wrap;html=1;" parent="WIyWlLk6GJQsqaUBKTNV-1" vertex="1">
          <mxGeometry x="300" y="140" width="120" height="60" as="geometry" />
        </mxCell>
        <mxCell id="CTCrt8Z_viRjLT7_yXvK-111" value="" style="endArrow=none;html=1;rounded=0;entryX=0.5;entryY=1;entryDx=0;entryDy=0;exitX=0.5;exitY=0;exitDx=0;exitDy=0;" parent="WIyWlLk6GJQsqaUBKTNV-1" source="CTCrt8Z_viRjLT7_yXvK-112" target="CTCrt8Z_viRjLT7_yXvK-110" edge="1">
          <mxGeometry width="50" height="50" relative="1" as="geometry">
            <mxPoint x="360" y="260" as="sourcePoint" />
            <mxPoint x="770" y="280" as="targetPoint" />
          </mxGeometry>
        </mxCell>
        <mxCell id="CTCrt8Z_viRjLT7_yXvK-112" value="d &amp;lt;= day" style="rhombus;whiteSpace=wrap;html=1;" parent="WIyWlLk6GJQsqaUBKTNV-1" vertex="1">
          <mxGeometry x="320" y="240" width="80" height="80" as="geometry" />
        </mxCell>
        <mxCell id="CTCrt8Z_viRjLT7_yXvK-116" value="End&lt;br&gt;" style="ellipse;whiteSpace=wrap;html=1;" parent="WIyWlLk6GJQsqaUBKTNV-1" vertex="1">
          <mxGeometry x="448" y="385" width="80" height="30" as="geometry" />
        </mxCell>
        <mxCell id="CTCrt8Z_viRjLT7_yXvK-117" value="print(&quot;Valid&quot;)" style="rounded=0;whiteSpace=wrap;html=1;" parent="WIyWlLk6GJQsqaUBKTNV-1" vertex="1">
          <mxGeometry x="300" y="370" width="120" height="60" as="geometry" />
        </mxCell>
        <mxCell id="CTCrt8Z_viRjLT7_yXvK-118" value="" style="endArrow=classic;html=1;rounded=0;exitX=0.5;exitY=1;exitDx=0;exitDy=0;entryX=0.5;entryY=0;entryDx=0;entryDy=0;" parent="WIyWlLk6GJQsqaUBKTNV-1" source="CTCrt8Z_viRjLT7_yXvK-112" target="CTCrt8Z_viRjLT7_yXvK-117" edge="1">
          <mxGeometry width="50" height="50" relative="1" as="geometry">
            <mxPoint x="720" y="330" as="sourcePoint" />
            <mxPoint x="770" y="280" as="targetPoint" />
          </mxGeometry>
        </mxCell>
        <mxCell id="CTCrt8Z_viRjLT7_yXvK-119" value="Yes" style="edgeLabel;html=1;align=center;verticalAlign=middle;resizable=0;points=[];" parent="CTCrt8Z_viRjLT7_yXvK-118" vertex="1" connectable="0">
          <mxGeometry x="0.1943" y="-3" relative="1" as="geometry">
            <mxPoint as="offset" />
          </mxGeometry>
        </mxCell>
        <mxCell id="CTCrt8Z_viRjLT7_yXvK-121" value="" style="endArrow=none;html=1;rounded=0;exitX=1;exitY=0.5;exitDx=0;exitDy=0;entryX=0;entryY=0.5;entryDx=0;entryDy=0;entryPerimeter=0;" parent="WIyWlLk6GJQsqaUBKTNV-1" source="CTCrt8Z_viRjLT7_yXvK-117" target="CTCrt8Z_viRjLT7_yXvK-116" edge="1">
          <mxGeometry width="50" height="50" relative="1" as="geometry">
            <mxPoint x="720" y="330" as="sourcePoint" />
            <mxPoint x="770" y="280" as="targetPoint" />
          </mxGeometry>
        </mxCell>
        <mxCell id="CTCrt8Z_viRjLT7_yXvK-123" value="" style="endArrow=classic;html=1;rounded=0;exitX=0.5;exitY=1;exitDx=0;exitDy=0;entryX=1;entryY=0.5;entryDx=0;entryDy=0;" parent="WIyWlLk6GJQsqaUBKTNV-1" source="CTCrt8Z_viRjLT7_yXvK-74" target="CTCrt8Z_viRjLT7_yXvK-28" edge="1">
          <mxGeometry width="50" height="50" relative="1" as="geometry">
            <mxPoint x="720" y="1050" as="sourcePoint" />
            <mxPoint x="950" y="1183" as="targetPoint" />
            <Array as="points">
              <mxPoint x="1165" y="1183" />
            </Array>
          </mxGeometry>
        </mxCell>
        <mxCell id="CTCrt8Z_viRjLT7_yXvK-124" value="Yes&lt;br&gt;" style="edgeLabel;html=1;align=center;verticalAlign=middle;resizable=0;points=[];" parent="CTCrt8Z_viRjLT7_yXvK-123" vertex="1" connectable="0">
          <mxGeometry x="-0.7112" y="-1" relative="1" as="geometry">
            <mxPoint as="offset" />
          </mxGeometry>
        </mxCell>
        <mxCell id="CTCrt8Z_viRjLT7_yXvK-125" value="" style="endArrow=classic;html=1;rounded=0;exitX=0.5;exitY=1;exitDx=0;exitDy=0;entryX=0.5;entryY=0;entryDx=0;entryDy=0;" parent="WIyWlLk6GJQsqaUBKTNV-1" source="CTCrt8Z_viRjLT7_yXvK-27" target="CTCrt8Z_viRjLT7_yXvK-28" edge="1">
          <mxGeometry width="50" height="50" relative="1" as="geometry">
            <mxPoint x="720" y="1050" as="sourcePoint" />
            <mxPoint x="770" y="1000" as="targetPoint" />
          </mxGeometry>
        </mxCell>
        <mxCell id="CTCrt8Z_viRjLT7_yXvK-126" value="Yes&lt;br&gt;" style="edgeLabel;html=1;align=center;verticalAlign=middle;resizable=0;points=[];" parent="CTCrt8Z_viRjLT7_yXvK-125" vertex="1" connectable="0">
          <mxGeometry x="0.32" y="1" relative="1" as="geometry">
            <mxPoint as="offset" />
          </mxGeometry>
        </mxCell>
        <mxCell id="CTCrt8Z_viRjLT7_yXvK-128" value="" style="endArrow=classic;html=1;rounded=0;entryX=0;entryY=0.5;entryDx=0;entryDy=0;exitX=1;exitY=0.5;exitDx=0;exitDy=0;" parent="WIyWlLk6GJQsqaUBKTNV-1" source="CTCrt8Z_viRjLT7_yXvK-27" target="CTCrt8Z_viRjLT7_yXvK-74" edge="1">
          <mxGeometry width="50" height="50" relative="1" as="geometry">
            <mxPoint x="720" y="1050" as="sourcePoint" />
            <mxPoint x="770" y="1000" as="targetPoint" />
          </mxGeometry>
        </mxCell>
        <mxCell id="CTCrt8Z_viRjLT7_yXvK-129" value="No" style="edgeLabel;html=1;align=center;verticalAlign=middle;resizable=0;points=[];" parent="CTCrt8Z_viRjLT7_yXvK-128" vertex="1" connectable="0">
          <mxGeometry x="-0.1762" y="6" relative="1" as="geometry">
            <mxPoint x="-1" as="offset" />
          </mxGeometry>
        </mxCell>
        <mxCell id="CTCrt8Z_viRjLT7_yXvK-130" value="Kiểm tra ngày&amp;nbsp; hợp lệ" style="ellipse;whiteSpace=wrap;html=1;" parent="WIyWlLk6GJQsqaUBKTNV-1" vertex="1">
          <mxGeometry x="292" y="50" width="136" height="40" as="geometry" />
        </mxCell>
        <mxCell id="CTCrt8Z_viRjLT7_yXvK-131" value="" style="endArrow=none;html=1;rounded=0;entryX=0.5;entryY=1;entryDx=0;entryDy=0;exitX=0.5;exitY=0;exitDx=0;exitDy=0;" parent="WIyWlLk6GJQsqaUBKTNV-1" source="CTCrt8Z_viRjLT7_yXvK-110" target="CTCrt8Z_viRjLT7_yXvK-130" edge="1">
          <mxGeometry width="50" height="50" relative="1" as="geometry">
            <mxPoint x="510" y="210" as="sourcePoint" />
            <mxPoint x="560" y="160" as="targetPoint" />
          </mxGeometry>
        </mxCell>
        <mxCell id="CTCrt8Z_viRjLT7_yXvK-132" value="print(&quot;Invalid&quot;)" style="rounded=0;whiteSpace=wrap;html=1;" parent="WIyWlLk6GJQsqaUBKTNV-1" vertex="1">
          <mxGeometry x="428" y="300" width="120" height="60" as="geometry" />
        </mxCell>
        <mxCell id="CTCrt8Z_viRjLT7_yXvK-133" value="" style="endArrow=classic;html=1;rounded=0;exitX=1;exitY=0.5;exitDx=0;exitDy=0;entryX=0.5;entryY=0;entryDx=0;entryDy=0;" parent="WIyWlLk6GJQsqaUBKTNV-1" source="CTCrt8Z_viRjLT7_yXvK-112" target="CTCrt8Z_viRjLT7_yXvK-132" edge="1">
          <mxGeometry width="50" height="50" relative="1" as="geometry">
            <mxPoint x="510" y="430" as="sourcePoint" />
            <mxPoint x="560" y="380" as="targetPoint" />
            <Array as="points">
              <mxPoint x="488" y="280" />
            </Array>
          </mxGeometry>
        </mxCell>
        <mxCell id="CTCrt8Z_viRjLT7_yXvK-134" value="No" style="edgeLabel;html=1;align=center;verticalAlign=middle;resizable=0;points=[];" parent="CTCrt8Z_viRjLT7_yXvK-133" vertex="1" connectable="0">
          <mxGeometry x="0.1975" y="-2" relative="1" as="geometry">
            <mxPoint y="1" as="offset" />
          </mxGeometry>
        </mxCell>
        <mxCell id="CTCrt8Z_viRjLT7_yXvK-135" value="" style="endArrow=none;html=1;rounded=0;entryX=0.5;entryY=1;entryDx=0;entryDy=0;exitX=0.5;exitY=0;exitDx=0;exitDy=0;" parent="WIyWlLk6GJQsqaUBKTNV-1" source="CTCrt8Z_viRjLT7_yXvK-116" target="CTCrt8Z_viRjLT7_yXvK-132" edge="1">
          <mxGeometry width="50" height="50" relative="1" as="geometry">
            <mxPoint x="510" y="430" as="sourcePoint" />
            <mxPoint x="560" y="380" as="targetPoint" />
          </mxGeometry>
        </mxCell>
      </root>
    </mxGraphModel>
  </diagram>
</mxfile>
